<svg width="1254" height="1254" viewBox="0 0 1254 1254" fill="none" xmlns="http://www.w3.org/2000/svg">
<g clip-path="url(#clip0_22_3)">
<path d="M0 0H1254V1254H0V0Z" fill="#0D101F"/>
<path d="M383.922 309.007C389.801 304.584 395.269 299.327 401.082 294.82C447.186 259.065 508.977 228.693 566.494 217.621L567.52 218.584C567.069 219.858 567.333 219.239 566.729 220.443C567.44 221.576 568.945 233.596 569.425 236.098C568.357 237.657 567.457 237.878 565.749 238.689L565.373 239.716L564.425 240.212C554.66 245.26 544.355 248.78 533.49 254.718C516.782 263.912 501.158 274.952 486.914 287.632C480.848 293.093 473.818 300.539 468.077 305.501C456.037 319.368 448.045 328.381 437.748 343.782C380.534 429.357 360.186 535.005 366.858 636.632C370.614 693.845 383.646 743.356 406.318 795.451C408.142 799.137 421.183 823.182 420.938 825.215C420.925 825.326 420.841 825.411 420.793 825.509C412.655 824.75 401.19 823.795 393.173 821.854C365.418 815.137 337.926 801.507 316.953 782.201C305.83 771.828 297.496 762.65 288.75 750.177C284.875 747.679 276.783 733.247 274.687 729.126C257.174 694.678 247.029 654.266 247.416 615.574C246.804 590.041 249.267 547.408 256.639 522.71C267.87 458.002 309.359 381.341 354.191 334.05C360.751 327.13 371.71 315.396 379.146 309.627C381.123 309.351 381.393 309.014 382.924 307.859C383.87 308.775 383.632 308.328 383.922 309.007Z" fill="#D4AA61"/>
<path d="M247.416 615.574C247.488 615.789 247.563 616.003 247.632 616.223C251.258 627.624 248.95 643.428 253.407 654.468C254.551 657.303 263.387 660.805 265.99 665.079C272.299 675.427 277.056 686.865 283.26 697.335C287.118 703.85 293.166 708.755 297.121 715.343C302.554 724.399 320.196 759.999 326.185 764.848C332.873 770.267 339.533 774.957 343.945 782.495C346.002 786.015 348.034 790.846 350.693 793.847C353.172 796.645 356.609 798.341 358.569 801.611C358.713 803.191 358.768 804.238 358.781 805.823C360.763 808.695 365.241 809.583 368.61 810.557C375.93 809.032 373.43 811.34 377.382 814.206C377.625 814.383 384.61 816.441 386.341 817.237C382.161 817.071 376.732 814.702 372.735 813.122C353.225 805.627 335.065 795.01 318.967 781.68L316.953 782.201C305.83 771.828 297.496 762.65 288.751 750.177C284.875 747.679 276.783 733.247 274.687 729.126C257.174 694.678 247.03 654.266 247.416 615.574Z" fill="#AF803E"/>
<path d="M288.751 750.177L286.915 746.308L287.175 745.72C289.631 747.648 292.291 752.265 294.263 754.923C301.639 764.86 309.79 773.353 318.967 781.68L316.953 782.201C305.83 771.828 297.496 762.65 288.751 750.177Z" fill="#D3A85E"/>
<path d="M404.51 797.784C340.609 663.003 349.211 467.642 435.236 343.477C444.192 330.551 455.643 315.604 467.269 305.027L468.078 305.501C456.037 319.368 448.046 328.381 437.748 343.782C380.534 429.357 360.187 535.005 366.858 636.631C370.614 693.845 383.646 743.356 406.319 795.451L404.51 797.784Z" fill="#F4DDAA"/>
<path d="M379.146 309.627C381.123 309.351 381.393 309.014 382.924 307.859C383.87 308.775 383.632 308.328 383.922 309.007C375.522 317.508 366.645 325.387 358.381 334.024C308.255 386.41 274.926 452.631 258.404 522.923C256.224 532.197 254.864 542.48 253.335 552.005C253.407 544.673 257.752 527.115 256.639 522.71C267.87 458.001 309.359 381.341 354.191 334.05C360.751 327.13 371.71 315.396 379.146 309.627Z" fill="#F4DDAA"/>
<path d="M406.319 795.451C408.142 799.137 421.183 823.182 420.938 825.215C420.925 825.326 420.841 825.411 420.793 825.509C415.003 822.778 407.402 804.379 404.51 797.784L406.319 795.451Z" fill="#F4DDAA"/>
<path d="M770.01 633.123C777.394 631.911 795.763 632.345 804.201 632.339L867.739 632.327H987.745C1010.08 632.339 1034.73 631.837 1056.8 632.701C1052.96 634.029 1048.82 634.684 1044.81 635.45C1040.15 636.791 1035.39 638.089 1030.8 639.601C963.149 661.84 979.663 740.215 977.122 794.478L977.146 802.039C977.758 833.928 977.507 869.693 977.122 901.661L977.213 910.711C965.812 922.517 955.96 932.503 943.035 942.692C935.277 949.666 925.051 956.867 916.405 962.745C852.628 1006.16 775.202 1029.86 698.707 1035.74C695.768 1034.76 685.916 1034.64 682.701 1035.04C682.144 1034.2 682.272 1034.12 682.199 1033.12L680.527 1033.09L680.46 1032.55L682.983 1030.74C683.809 1030.85 684.501 1031.02 685.285 1031.27L686.626 1030.35C703.489 1030.09 699.307 1023.96 710.408 1017.58L710.438 1016.74C708.54 1016.6 706.826 1016.49 704.952 1016.13L703.795 1015.89C763.905 1012.4 831.24 996.569 868.56 944.951C868.56 943.819 868.505 942.888 868.444 941.755L866.019 943.61C869.172 937.959 871.15 934.101 873.293 928.021C875.173 920.594 875.161 913.638 875.503 906.021L875.767 779.758L876.018 743.877C876.385 699.534 867.121 664.883 822.184 645.363C812.797 641.285 803.87 639.417 794.036 636.87C786.168 635.333 778.184 634.929 770.01 633.123Z" fill="#DBB36B"/>
<path d="M974.789 746.283C974.746 758.401 973.699 829.214 976.203 835.753C977.073 824.97 976.026 812.639 977.146 802.04C977.758 833.928 977.507 869.693 977.122 901.662L977.213 910.711C965.812 922.517 955.96 932.503 943.035 942.692C935.277 949.666 925.051 956.867 916.405 962.745C852.628 1006.16 775.202 1029.86 698.707 1035.74C695.768 1034.76 685.916 1034.64 682.701 1035.04C682.144 1034.2 682.272 1034.12 682.199 1033.12L680.527 1033.09L680.46 1032.55L682.983 1030.74C683.809 1030.85 684.501 1031.02 685.285 1031.27L686.626 1030.35C703.489 1030.09 699.307 1023.96 710.408 1017.58L710.438 1016.74C708.54 1016.6 706.826 1016.49 704.952 1016.13L703.795 1015.89C763.905 1012.4 831.24 996.569 868.56 944.952C868.56 943.819 868.505 942.888 868.444 941.755L866.019 943.611C869.172 937.959 871.15 934.102 873.293 928.021C875.173 920.594 875.161 913.638 875.503 906.021C883.708 903.621 882.588 894.945 887.425 889.318C903.265 870.887 918.451 851.679 932.411 831.804C934.903 828.05 937.273 819.496 939.453 816.27C946.163 806.344 960.822 772.545 969.976 767.549C971.862 767.714 972.039 767.91 973.754 767.242C975.089 761.646 972.823 752.853 974.789 746.283Z" fill="#AB7D3E"/>
<path d="M974.495 890.371C974.851 893.463 974.924 895.796 976.051 898.704L975.836 897.43C976.914 898.961 976.773 899.684 977.122 901.661L977.214 910.711C965.813 922.517 955.961 932.503 943.035 942.692C943.519 940.077 952.838 932.95 955.581 930.342L954.608 928.664C956.873 923.582 958.171 915.224 959.929 911.899C963.853 904.466 970.558 898.765 974.495 890.371Z" fill="#845826"/>
<path d="M873.294 928.021L875.063 927.305C877.457 930.072 870.422 942.141 868.561 944.951C868.561 943.819 868.505 942.888 868.444 941.755L866.02 943.61C869.173 937.959 871.151 934.101 873.294 928.021Z" fill="#F4DDAA"/>
<path d="M770.01 633.123C777.394 631.911 795.763 632.345 804.201 632.339L867.74 632.327H987.745C1010.08 632.339 1034.73 631.837 1056.8 632.701C1052.96 634.029 1048.82 634.684 1044.81 635.45C1026.23 636.785 1002.31 635.933 983.355 636.013C942.655 636.24 901.961 636.24 861.261 636.019L822.117 635.805C813.643 635.762 802.266 635.352 794.037 636.87C786.168 635.333 778.184 634.929 770.01 633.123Z" fill="#FEF6E6"/>
<path d="M974.789 746.283C976.253 751.99 975.016 780.542 975.616 789.365C975.806 777.309 974.979 758.407 975.867 747.33L976.485 747.012C977.777 759.013 975.383 784.393 977.122 794.478L977.147 802.04C976.026 812.639 977.073 824.97 976.204 835.753C973.699 829.214 974.746 758.401 974.789 746.283Z" fill="#D3A85E"/>
<path d="M316.856 864.979C339.127 881.811 368.362 893.824 395.834 898.147C403.906 899.421 411.661 899.837 419.748 900.596C437.687 900.259 449.487 899.568 467.392 895.453C474.705 904.901 483.94 913.724 491.848 922.694C493.729 924.439 503.595 933.459 504.712 934.904C568.067 989.221 637.262 1017.32 722.005 1011.1C769.514 1007.61 826.623 989.16 858.824 952.556C859.957 951.277 865.56 944.033 866.019 943.611L868.444 941.755C868.505 942.888 868.56 943.819 868.56 944.952C831.24 996.569 763.905 1012.4 703.795 1015.89L704.952 1016.13C706.826 1016.49 708.54 1016.6 710.439 1016.74L710.408 1017.58C699.307 1023.96 703.489 1030.09 686.626 1030.35L685.285 1031.27C684.501 1031.02 683.809 1030.85 682.983 1030.74L680.46 1032.55L680.527 1033.09L682.199 1033.12C682.273 1034.12 682.144 1034.2 682.701 1035.04C685.916 1034.64 695.768 1034.76 698.707 1035.74C682.034 1036.83 665.312 1037.1 648.608 1036.53C540.653 1033.05 427.252 985.486 352.904 906.413C339.799 892.881 328.656 879.698 316.856 864.979Z" fill="#D2A75F"/>
<path d="M316.856 864.979C339.127 881.811 368.362 893.824 395.834 898.147C403.906 899.421 411.661 899.837 419.748 900.596C437.687 900.259 449.487 899.568 467.392 895.453C474.705 904.901 483.94 913.724 491.848 922.694L491.231 926.301L481.78 916.663C480.917 927.464 462.355 931.193 455.272 935.614C443.572 942.913 433.276 957.957 417.893 958.079C396.063 942.717 375.665 925.419 356.949 906.389L354.396 905.446L352.904 906.413C339.799 892.881 328.656 879.698 316.856 864.979Z" fill="#93652D"/>
<path d="M316.856 864.979C339.127 881.811 368.362 893.824 395.834 898.147C403.906 899.421 411.661 899.837 419.748 900.596L419.027 900.658C412.986 901.111 408.528 899.065 404.565 901.968C389.885 902.764 365.097 893.573 351.433 888.154C349.168 887.254 338.133 881.094 337.018 881.48L339.16 883.409L338.98 884.229C337.367 884.438 338.023 884.321 336.148 883.488L335.952 883.972C342.383 890.934 350.258 900.082 356.949 906.389L354.396 905.446L352.904 906.413C339.799 892.881 328.656 879.698 316.856 864.979Z" fill="#AF803E"/>
<path d="M419.748 900.596C437.688 900.259 449.487 899.567 467.392 895.453C474.705 904.9 483.94 913.724 491.848 922.694L491.231 926.301L481.78 916.663C476.2 910.907 471.083 904.668 465.999 898.484C446.153 902.745 424.729 904.417 404.565 901.967C408.528 899.065 412.987 901.11 419.027 900.657L419.748 900.596Z" fill="#E8BF70"/>
<path d="M481.78 916.663L491.231 926.301L491.848 922.694C493.729 924.439 503.595 933.459 504.712 934.904C504.024 936.104 503.61 936.483 503.422 937.733L501.599 936.532L501.312 937.365C500.58 936.998 499.525 936.11 498.849 936.79C488.07 947.664 474.148 949.96 472.046 966.664C473.093 969.285 482.307 987.721 477.238 989.558C473.674 990.856 464.223 985.639 460.341 983.496C446.121 975.659 431.117 967.576 417.894 958.079C433.276 957.957 443.572 942.913 455.272 935.614C462.355 931.193 480.917 927.464 481.78 916.663Z" fill="#AF803E"/>
<path d="M491.848 922.694C493.73 924.439 503.596 933.459 504.712 934.904C504.024 936.104 503.61 936.483 503.422 937.733L501.599 936.532C500.967 935.62 492.583 927.617 491.231 926.301L491.848 922.694Z" fill="#F4DDAA"/>
<path d="M504.712 934.903C568.067 989.221 637.262 1017.32 722.005 1011.1C769.514 1007.61 826.623 989.16 858.824 952.556C859.957 951.276 865.56 944.033 866.019 943.61L868.444 941.755C868.505 942.888 868.56 943.818 868.56 944.951C831.24 996.569 763.905 1012.4 703.795 1015.89C698.156 1015.5 692.247 1015.81 686.559 1015.6C616.542 1012.97 555.219 983.618 503.421 937.732C503.61 936.483 504.024 936.103 504.712 934.903Z" fill="#FBF4E0"/>
<path d="M379.146 309.627C399.234 289.322 436.687 265.36 461.696 252.25C552.237 205.11 656.666 191.96 756.068 215.181C788.281 222.615 816.723 233.309 847.822 243.448C881.67 254.484 920.796 261.072 953.604 243.722C956.041 242.434 956.236 241.865 958.147 242.459L958.722 244.756C956.977 252.109 957.381 269.726 956.059 274.154C954.234 303.456 952.324 333.143 951.65 362.463C951.448 371.247 951.809 441.802 951.069 443.011L950.634 442.7C949.532 439.415 948.662 435.476 947.891 432.063C942.037 406.181 932.601 383.746 920.551 360.25C919.792 359.494 913.963 349.817 912.977 348.232C909.444 342.598 905.74 337.077 901.852 331.68C892.195 318.456 882.564 309.44 871.732 297.723C852.12 280.74 835.98 268.549 812.553 256.536C754.47 226.75 685.255 215.521 620.706 225.133C600.671 228.118 584.325 233.612 565.374 239.716L565.75 238.689C567.457 237.878 568.357 237.657 569.425 236.098C568.946 233.596 567.441 221.576 566.729 220.443C567.334 219.239 567.07 219.858 567.52 218.583L566.494 217.621C508.977 228.693 447.187 259.065 401.082 294.82C395.27 299.327 389.802 304.583 383.922 309.007C383.632 308.328 383.871 308.775 382.925 307.859C381.394 309.013 381.124 309.351 379.146 309.627Z" fill="#F5DB9F"/>
<path d="M953.058 307.312C952.911 303.502 954.54 274.676 955.373 272.837L956.058 274.154C954.234 303.456 952.323 333.143 951.65 362.463C951.448 371.247 951.809 441.802 951.068 443.012L950.633 442.7C949.531 439.415 948.662 435.476 947.89 432.064C942.036 406.182 932.601 383.747 920.551 360.251C919.792 359.495 913.962 349.817 912.977 348.232C909.444 342.598 905.739 337.077 901.851 331.68C892.195 318.457 882.563 309.44 871.732 297.723L872.075 296.238C870.679 293.322 868.052 291.152 865.694 288.832C875.32 281.818 890.383 276.811 902.182 275.641C910.007 280.982 917.122 284.883 925.461 289.322C927.953 290.649 935.944 297.208 938.148 297.563C941.669 298.13 946.776 298.319 950.541 298.827C952.054 301.479 952.415 304.292 953.058 307.312Z" fill="#E4BF79"/>
<path d="M920.551 360.25C927.402 363.147 947.18 413.936 947.008 423.244C946.972 425.336 946.029 424.07 947.547 426.214L949.335 426.52C949.427 421.317 949.341 410.111 950.272 405.559C951.295 409.491 951.619 439.39 950.633 442.7C949.531 439.415 948.662 435.476 947.89 432.063C942.036 406.181 932.601 383.746 920.551 360.25Z" fill="#F4DDAA"/>
<path d="M379.146 309.627C399.234 289.322 436.687 265.36 461.696 252.25C552.237 205.11 656.666 191.96 756.068 215.181C788.281 222.615 816.723 233.309 847.822 243.448C881.67 254.484 920.796 261.072 953.604 243.722C956.041 242.434 956.236 241.865 958.147 242.459L958.722 244.756C947.04 250.09 940.892 253.577 927.697 255.936C886.299 263.28 846.052 246.587 807.489 233.369C730.327 206.921 646.649 198.268 566.494 217.621C508.977 228.693 447.187 259.065 401.082 294.82C395.27 299.327 389.802 304.583 383.922 309.007C383.632 308.328 383.871 308.775 382.925 307.859C381.394 309.013 381.124 309.351 379.146 309.627Z" fill="#FBF4E0"/>
<path d="M662.299 778.796C670.265 777.663 682.83 777.902 690.998 778.251C734.325 780.1 778.558 793.553 813.747 819.306C814.837 820.108 815.253 820.451 816.227 821.37C813.741 820.819 812.957 820.194 810.697 818.902L811.248 820.996C805.915 817.788 800.405 814.885 794.741 812.314C754.108 793.602 704.726 790.265 661.099 798.959C642.981 802.572 629.039 807.195 611.852 813.514C592.296 821.596 576.453 829.287 557.68 839.108C547.987 844.178 533.325 852.328 523.74 856.289C509.148 866.784 451.546 884.719 433.256 882.833C396.024 885.968 354.287 874.242 323.8 852.824L323 850.338L323.654 849.903C325.125 849.854 325.113 849.866 326.513 849.419C326.182 844.901 326.507 830.922 328.075 826.936C329.375 827.45 329.752 827.744 330.913 828.528L332.17 828.16C313.476 816.753 306.387 811.438 290.917 795.702C291.563 794.459 291.57 794.557 291.571 793.167C289.783 790.957 289.253 790.614 288.686 787.944C292.51 792.01 296.44 795.977 300.472 799.841C316.841 815.351 336.373 827.125 357.727 834.363C447.881 864.598 536.074 799.584 622.622 784.197C635.848 781.845 648.773 779.102 662.299 778.796Z" fill="#D3A85E"/>
<path d="M500.146 826.776C504.973 827.419 512.683 822.533 514.502 823.623C520.237 827.058 534.653 839.506 535.528 845.923C533.449 853.338 523.973 852.928 523.74 856.29C509.148 866.784 451.546 884.719 433.256 882.833C427.249 880.867 414.391 883.966 410.198 881.504C404.126 877.953 390.398 853.724 393.729 847.423C400.577 847.35 406.06 847.38 412.852 846.272C445.157 844.27 469.265 836.99 500.146 826.776Z" fill="#AF803E"/>
<path d="M662.299 778.796C670.265 777.663 682.83 777.902 690.998 778.251C734.325 780.1 778.558 793.553 813.747 819.306C814.837 820.108 815.253 820.451 816.227 821.37C813.741 820.819 812.957 820.194 810.697 818.902L811.249 820.996C805.915 817.788 800.405 814.885 794.741 812.314C754.108 793.602 704.726 790.265 661.099 798.959C642.981 802.572 629.039 807.195 611.852 813.514C608.736 812.981 601.535 816.471 598.134 817.843C596.671 816.894 598.715 815.841 597.814 813.269C596.07 808.297 585.619 801.629 584.922 798.623L585.846 797.612C587.915 797.08 589.335 796.596 591.353 795.873L591.278 795.175C594.401 793.749 601.596 791.985 605.203 791.03C626.663 785.354 648.057 782.764 670.045 780.425C671.472 779.494 684.018 779.819 687.924 779.182C679.456 778.533 670.957 779.972 663.261 778.931L662.299 778.796Z" fill="#E7C37E"/>
<path d="M662.3 778.796C670.266 777.663 682.83 777.902 690.999 778.251C734.325 780.1 778.558 793.553 813.747 819.306C814.837 820.108 815.254 820.451 816.227 821.37C813.741 820.819 812.957 820.194 810.698 818.902C809.492 817.445 799.879 811.683 797.742 810.483C769.753 794.888 738.899 785.097 707.035 781.705C695.572 780.48 680.216 782.121 670.045 780.425C671.472 779.494 684.018 779.819 687.925 779.182C679.457 778.533 670.958 779.972 663.261 778.931L662.3 778.796Z" fill="#F4DDAA"/>
<path d="M323 850.338L323.654 849.904C325.125 849.855 325.114 849.867 326.513 849.42C326.182 844.901 326.507 830.922 328.075 826.936C329.375 827.45 329.752 827.744 330.913 828.528L332.17 828.161C363.011 842.666 378.272 846.138 412.853 846.273C406.06 847.381 400.577 847.35 393.729 847.424C390.398 853.724 404.126 877.953 410.198 881.505C414.391 883.966 427.249 880.868 433.256 882.833C396.024 885.968 354.287 874.243 323.8 852.824L323 850.338Z" fill="#DCB368"/>
<path d="M288.686 787.944C292.51 792.01 296.44 795.978 300.472 799.841C316.841 815.351 336.373 827.126 357.727 834.363C447.88 864.599 536.074 799.584 622.622 784.197C635.848 781.846 648.773 779.103 662.299 778.796L663.26 778.931C670.957 779.972 679.456 778.533 687.924 779.182C684.018 779.819 671.472 779.494 670.045 780.425C648.057 782.764 626.663 785.354 605.203 791.03C601.596 791.985 594.401 793.749 591.278 795.176C572.433 799.89 550.299 808.542 532.013 815.131C523.214 818.296 507.994 823.25 500.146 826.777C469.265 836.99 445.157 844.27 412.852 846.272C378.272 846.138 363.011 842.666 332.17 828.16C313.476 816.753 306.387 811.438 290.917 795.702C291.563 794.459 291.57 794.557 291.571 793.167C289.783 790.957 289.253 790.614 288.686 787.944Z" fill="#FBF4E0"/>
<path d="M233.023 637.55C234.078 631.023 235.09 624.489 236.058 617.95C236.398 615.77 237.207 613.817 237.202 612.003L237.619 611.76C237.47 623.112 236.084 632.878 236.196 645.228C236.689 682.695 246.273 719.482 264.127 752.43C273.006 768.546 278.169 774.063 288.686 787.944C289.253 790.614 289.783 790.957 291.571 793.167C291.57 794.557 291.563 794.459 290.917 795.702C306.387 811.438 313.476 816.753 332.17 828.16L330.913 828.528C329.752 827.744 329.375 827.45 328.075 826.936C326.507 830.922 326.182 844.901 326.513 849.42C325.113 849.867 325.125 849.854 323.654 849.903L323 850.338L323.8 852.824C317.235 849.138 306.881 840.357 301.508 835.441C296.761 832.606 280.573 813.459 276.837 808.444C246.448 767.316 230.454 717.321 231.328 666.187C231.406 656.874 231.659 646.777 233.023 637.55Z" fill="#C49651"/>
<path d="M233.023 637.55C234.078 631.023 235.09 624.489 236.058 617.95C236.398 615.77 237.207 613.817 237.202 612.003L237.619 611.76C237.47 623.112 236.084 632.878 236.196 645.228C236.689 682.695 246.273 719.482 264.127 752.43L263.023 752.388C262.282 753.735 262.33 753.655 262.118 755.18C260.639 753.478 256.164 743.87 255.099 741.409C244.052 716.023 237.452 688.935 235.589 661.313C235.33 657.927 235.475 638.756 235.026 637.55L234.284 638.058L233.023 637.55Z" fill="#D3A85E"/>
<path d="M262.118 755.18C262.33 753.655 262.282 753.735 263.023 752.388L264.127 752.431C273.006 768.546 278.169 774.063 288.686 787.944C289.253 790.614 289.783 790.957 291.571 793.167C291.57 794.557 291.563 794.459 290.917 795.702C277.754 781.123 271.962 771.7 262.118 755.18Z" fill="#F4DDAA"/>
<path d="M301.509 835.441C305.62 835.508 318.167 848.446 323.001 850.338L323.8 852.824C317.235 849.138 306.882 840.358 301.509 835.441Z" fill="#D3A85E"/>
<path d="M810.697 818.902C812.957 820.194 813.74 820.819 816.226 821.37C819.6 823.244 824.633 827.554 827.854 830.12L826.452 830.775C822.496 827.634 815.577 823.415 811.248 820.996L810.697 818.902Z" fill="#D3A85E"/>
<path d="M827.854 830.12C831.718 833.353 833.334 834.908 836.708 838.643C833.034 835.979 829.93 833.683 826.452 830.775L827.854 830.12Z" fill="#AF803E"/>
</g>
<defs>
<clipPath id="clip0_22_3">
<rect width="1254" height="1254" fill="white"/>
</clipPath>
</defs>
</svg>
